PathFileType	4	(X/Y/Z)	D:\TRACE\v60_Jaco2_6-2-23\JustBodyDRS_Motion2_9-v60.trc
DataRate	CameraRate	NumFrames	NumMarkers	Units	OrigDataRate	OrigDataStartFrame	OrigNumFrames
100.00	100.00	      24	9	mm	100.00	2586	      6895
Frame#	Time	front left toe			Front right toe			aft left toe			aft right toe			Arm			FL body			FR body			AL Body			AR Body			
		X1	Y1	Z1	X2	Y2	Z2	X3	Y3	Z3	X4	Y4	Z4	X5	Y5	Z5	X6	Y6	Z6	X7	Y7	Z7	X8	Y8	Z8	X9	Y9	Z9	

2586	25.850	-199.67743	76.42985	-228.78001	184.98901	-5.84715	-240.37994	-178.90829	44.58921	393.12546	198.21182	132.14325	378.65518	-123.36823	1189.35962	-393.90686	-93.49184	558.39020	-371.67776	67.16010	559.31671	-377.24405	-59.46517	581.64020	573.06812	97.16400	577.05188	569.00439	
2587	25.860	-199.77370	86.37553	-228.25645	185.84340	-6.20253	-240.37071	-178.33017	44.60544	392.85345	197.66905	143.45581	379.82657	-123.57331	1187.68140	-395.74936	-93.12090	556.26837	-371.61526	67.10748	558.14032	-377.24307	-60.40627	582.58478	572.70081	96.02146	578.25433	568.98993	
2588	25.870	-199.77942	95.15357	-227.65503	186.16864	-6.46189	-240.21480	-177.58258	44.62445	392.79742	196.80989	154.07347	381.12408	-124.38200	1186.92200	-396.83035	-92.48568	554.36365	-371.57318	67.51366	556.32733	-377.16296	-61.19829	583.65570	572.90601	95.21033	579.27795	569.11810	
2589	25.880	-199.33339	102.89769	-227.24756	187.00989	-6.51317	-239.79054	-177.04994	44.43865	392.69046	195.26424	163.62160	382.52173	-126.40744	1185.60315	-398.14313	-91.74709	552.74561	-371.37921	67.36195	554.75146	-376.78732	-61.64943	584.66296	572.90179	94.91145	580.65277	569.20374	
2590	25.890	-199.17369	109.29023	-226.83240	187.47128	-6.59267	-239.72726	-176.63553	44.66387	392.58337	193.90935	171.18047	383.55289	-128.32631	1184.19043	-399.30481	-91.49105	551.35913	-371.47186	68.44668	553.70251	-376.88324	-62.74748	585.29169	572.75116	93.96802	581.67151	569.34827	
2591	25.900	-199.68004	113.82868	-226.63301	188.19472	-6.70417	-239.68991	-176.09514	45.01993	392.45987	192.73463	175.68190	384.52975	-129.43050	1182.02954	-400.73233	-91.15347	549.83838	-371.39084	68.55775	552.65674	-376.64453	-63.59573	586.20135	572.70844	93.30743	582.60736	569.42841	
2592	25.910	-200.68893	115.77412	-227.03658	188.74426	-6.59932	-239.75124	-175.58223	45.05664	392.44623	191.71443	177.18831	385.58234	-129.96829	1179.85132	-402.81448	-90.99089	548.84644	-371.45178	68.87589	551.40820	-376.74185	-64.30450	586.79907	572.32471	92.38192	583.57190	569.49823	
2593	25.920	-202.22469	113.82475	-226.79765	189.30667	-6.72359	-239.67491	-175.05222	44.90483	392.40579	191.20201	175.47311	386.17914	-129.82373	1178.03992	-404.10428	-91.69050	547.64258	-372.16187	68.76183	550.78235	-376.43130	-65.35792	587.20404	572.21710	91.32399	584.26965	569.58496	
2594	25.930	-202.68274	109.68690	-227.26208	190.16510	-6.83184	-239.63046	-174.59732	44.74854	392.21973	190.10985	171.65829	387.17450	-130.47209	1176.80969	-405.88602	-90.78725	546.40375	-372.16986	69.88162	549.55334	-376.33203	-65.83746	587.68719	572.46442	90.80611	584.93689	569.82965	
2595	25.940	-202.37094	103.94199	-227.44969	190.82307	-6.90122	-239.45845	-173.89748	44.82970	392.16129	188.99677	166.25076	387.54358	-131.22949	1176.07703	-406.95596	-90.53144	545.47125	-372.41785	70.13605	549.17072	-376.39374	-66.74081	588.07556	572.12500	89.73895	585.74030	569.61212	
2596	25.950	-201.72607	97.98436	-228.20039	191.49545	-6.88844	-239.35365	-173.32458	44.91465	392.10202	187.77914	159.94945	388.07175	-131.86852	1175.71753	-407.61792	-90.34167	544.81818	-372.78757	70.26853	548.75903	-376.57870	-67.81367	588.45935	571.76306	88.88590	586.49268	569.53943	
2597	25.960	-200.86237	90.56380	-228.91574	192.14764	-7.01300	-239.45911	-172.72829	44.81042	391.99783	185.48048	151.86072	388.31894	-132.94737	1173.88928	-408.47073	-89.36553	543.77966	-372.84500	70.20010	547.94684	-376.41168	-68.48972	588.84473	571.27997	87.71563	586.88379	569.11237	
2598	25.970	-201.12932	83.02813	-230.12271	193.02765	-7.08074	-239.38945	-172.08308	44.68391	391.84897	182.79179	142.45729	388.38916	-133.76328	1173.34973	-408.48038	-89.01499	542.93585	-373.15897	70.18562	547.53088	-377.09677	-69.83578	588.98065	570.51575	86.91125	587.49249	568.95441	
2599	25.980	-202.47049	75.25216	-231.99461	193.70052	-7.04965	-239.39848	-171.38020	44.43042	391.79602	179.75938	131.52295	387.79269	-134.33488	1172.72302	-409.70956	-88.16721	542.26727	-373.55060	71.00510	547.44354	-377.70578	-71.00468	589.03741	569.71326	86.02144	588.08685	568.62427	
2600	25.990	-203.56613	66.94872	-234.13507	194.38080	-6.90988	-239.30582	-170.73969	44.44287	391.57925	177.40585	119.99680	387.59674	-135.42708	1172.17371	-411.08282	-88.30347	542.01672	-374.33676	71.46795	547.25250	-377.68030	-71.46370	589.37573	570.00629	85.01940	588.37231	568.49542	
2601	26.000	-204.41594	58.48227	-236.28046	195.24329	-6.86061	-239.31606	-169.89105	44.34618	391.55646	174.70558	107.48910	386.98865	-136.17390	1171.75037	-412.26056	-87.94166	541.63477	-374.53320	71.81935	547.15222	-378.08276	-72.52940	589.49939	569.55768	84.29008	588.77338	568.08020	
2602	26.010	-205.46619	49.66108	-238.57408	195.92886	-6.74636	-239.17351	-169.21158	44.09529	391.64835	171.48395	95.20313	386.54379	-136.98611	1171.03259	-413.70285	-87.97300	541.48077	-375.12439	71.83949	547.12164	-378.31708	-73.58813	589.67590	569.07330	83.19400	588.86951	567.74695	
2603	26.020	-206.46483	41.04901	-240.35754	196.50932	-6.61794	-239.05405	-168.56902	43.77137	391.71136	168.87608	87.51694	385.00085	-137.54979	1170.44775	-414.18967	-88.42475	541.40149	-376.08200	72.04388	546.97375	-378.70959	-74.19070	589.59229	568.31561	82.03680	588.93756	567.19849	
2604	26.030	-207.59903	31.84254	-241.73721	197.48239	-6.39873	-238.98035	-167.93327	43.49203	391.64545	166.43054	78.61884	383.79700	-137.30559	1170.00073	-414.91510	-88.72968	541.43823	-377.01263	71.81021	546.60266	-378.82672	-75.46706	589.76776	568.20056	80.97140	588.95068	566.53729	
2605	26.040	-208.76176	22.89359	-242.94366	198.39102	-6.34139	-239.14177	-167.01260	43.11589	391.50305	164.40752	70.29823	383.21109	-137.28098	1170.46216	-415.82574	-88.43076	540.84210	-377.70273	72.26762	546.35669	-379.92764	-76.40110	589.87329	567.64856	79.87688	589.43896	566.20184	
2606	26.050	-209.78900	14.59904	-243.91702	199.10919	-6.16105	-239.00584	-166.25003	42.98040	391.50067	163.35602	62.58090	381.74179	-137.36186	1170.48376	-416.52945	-88.31041	540.53760	-378.28424	72.25635	546.20648	-380.38620	-77.70633	590.11908	567.00012	78.83847	589.68311	565.37988	
2607	26.060	-210.58904	7.70412	-245.27061	199.73669	-5.85486	-238.86737	-165.74600	42.93528	391.52884	162.81741	55.45092	380.33789	-137.28728	1170.58264	-417.86240	-88.25986	540.66431	-379.24261	72.31043	546.28503	-380.90720	-78.95290	590.12329	565.96588	76.11397	588.40839	564.98138	
2608	26.070	-210.93463	1.38836	-247.02080	200.49429	-5.57642	-238.69083	-165.00389	42.48963	391.64972	162.04482	50.12312	378.31860	-137.41512	1170.28210	-418.91232	-88.43715	540.82178	-380.33359	72.09521	546.36255	-381.74344	-80.34296	589.73022	564.92773	75.58239	588.67896	564.41833	
2609	26.080	-210.84708	-2.65329	-249.19777	201.28987	-5.52931	-238.60161	-163.54880	41.38739	391.72104	162.52974	50.07317	375.57782	-137.49997	1169.46802	-419.93945	-87.56460	540.08582	-380.75952	71.93632	546.09906	-382.29428	-81.60767	589.75220	564.00146	73.81834	588.48444	563.53235	
